HIERARCHY
ROOT Hips
{
  OFFSET 0 89.5177 0.535
  CHANNELS 6 Xposition Yposition Zposition Zrotation Xrotation Yrotation
  JOINT Spine
  {
    OFFSET 12.0259 -0.162855 1.69034e-005
    CHANNELS 3 Zrotation Xrotation Yrotation
    JOINT Spine1
    {
      OFFSET 15.3169 -0.0121922 0
      CHANNELS 3 Zrotation Xrotation Yrotation
      JOINT Spine2
      {
        OFFSET 15.3176 -0.0121908 0
        CHANNELS 3 Zrotation Xrotation Yrotation
        JOINT Neck
        {
          OFFSET 19.9142 1.56338 0
          CHANNELS 3 Zrotation Xrotation Yrotation
          JOINT Head
          {
            OFFSET 6.92651 0 0
            CHANNELS 3 Zrotation Xrotation Yrotation
            End Site
            {
              OFFSET 20.7666 0 0
            }
          }
          JOINT LeftShoulder
          {
            OFFSET -6.20654 0.708824 7.28219
            CHANNELS 3 Zrotation Xrotation Yrotation
            JOINT LeftArm
            {
              OFFSET 14.108 0 -1.52588e-005
              CHANNELS 3 Zrotation Xrotation Yrotation
              JOINT LeftForeArm
              {
                OFFSET 28.5802 0 0
                CHANNELS 3 Zrotation Xrotation Yrotation
                JOINT LeftHand
                {
                  OFFSET 27.092 0 0
                  CHANNELS 3 Zrotation Xrotation Yrotation
                  End Site
                  {
                    OFFSET 9.55928 -0.186424 0.145352
                  }
                }
              }
            }
          }
          JOINT RightShoulder
          {
            OFFSET -6.20654 0.708866 -7.28218
            CHANNELS 3 Zrotation Xrotation Yrotation
            JOINT RightArm
            {
              OFFSET 14.108 0 1.52588e-005
              CHANNELS 3 Zrotation Xrotation Yrotation
              JOINT RightForeArm
              {
                OFFSET 28.5802 0 0
                CHANNELS 3 Zrotation Xrotation Yrotation
                JOINT RightHand
                {
                  OFFSET 27.092 0 0
                  CHANNELS 3 Zrotation Xrotation Yrotation
                  End Site
                  {
                    OFFSET 9.55929 -0.186417 -0.145354
                  }
                }
              }
            }
          }
        }
      }
    }
  }
  JOINT LeftUpLeg
  {
    OFFSET 0.005 -0.535 8.837
    CHANNELS 3 Zrotation Xrotation Yrotation
    JOINT LeftLeg
    {
      OFFSET 39.9035 0 0
      CHANNELS 3 Zrotation Xrotation Yrotation
      JOINT LeftFoot
      {
        OFFSET 39.6689 0 0
        CHANNELS 3 Zrotation Xrotation Yrotation
        JOINT LeftToe
        {
          OFFSET 10.1624 13.6296 0
          CHANNELS 3 Zrotation Xrotation Yrotation
          End Site
          {
            OFFSET 8.38147 0 0
          }
        }
      }
    }
  }
  JOINT RightUpLeg
  {
    OFFSET 0.005 -0.535 -8.837
    CHANNELS 3 Zrotation Xrotation Yrotation
    JOINT RightLeg
    {
      OFFSET 39.9035 0 0
      CHANNELS 3 Zrotation Xrotation Yrotation
      JOINT RightFoot
      {
        OFFSET 39.6689 0 0
        CHANNELS 3 Zrotation Xrotation Yrotation
        JOINT RightToe
        {
          OFFSET 10.1624 13.6296 0
          CHANNELS 3 Zrotation Xrotation Yrotation
          End Site
          {
            OFFSET 8.38147 0 0
          }
        }
      }
    }
  }
}
MOTION
Frames:	11
Frame Time:	0.0333333
297.451 84.52 37.3044 -100.53 23.7939 -170.919 1.45096 -1.08496 -0.276286 2.89745 -2.17608 -0.524989 2.89745 -2.17608 -0.524998 -8.3051e-012 -9.0191e-006 -5.27751e-005 -34.7231 -2.67557 -6.01273 -178.734 -4.13579 -72.957 9.86655 -1.2669 57.1764 -96.429 6.36111e-015 -1.59028e-015 -72.453 -23.269 -73.8482 -177.779 6.47423 71.0231 -5.53026 -14.4981 -43.8756 -87.9406 0 -0 -55.55 43.2451 57.1339 -16.4021 6.76277 170.124 -35.7523 6.36111e-015 7.95139e-016 30.8422 13 -4.04464 90 -4.77083e-015 -6.36111e-015 -29.301 5.67585 174.354 -83.2817 1.59028e-015 -3.18056e-015 -4.70189 -11.1127 12.0336 90 -3.18055e-015 1.73937e-015 
305.079 86.2182 40.1632 -100.493 23.9083 -173.587 1.40794 -1.89378 0.648852 2.83958 -3.77043 1.34534 2.83958 -3.77043 1.34533 -8.30907e-012 -9.0191e-006 -5.27751e-005 -32.3284 2.71277 -6.01546 -179.163 -3.2104 -75.3714 6.60605 2.98581 60.6831 -101.913 -3.18055e-015 -1.27222e-014 -71.6691 -23.1466 -71.2138 -177.503 7.76452 72.1138 -6.66221 -15.1621 -43.0076 -93.0616 1.59028e-015 -0 -56.2569 44.1866 58.1795 -4.73081 1.44858 171.773 -21.1342 -6.36111e-015 -2.38542e-015 23.647 9.79961 -6.68763 90 3.18055e-015 3.18055e-015 -34.1646 3.66695 176.532 -75.1054 0 -6.36111e-015 -3.78481 -9.6534 10.5109 90 -3.18055e-015 2.38542e-015 
312.81 88.4787 43.4355 -101.187 23.7727 -176.402 1.39521 -2.3496 1.77098 2.86605 -4.65372 3.60337 2.86605 -4.65372 3.60336 -8.30748e-012 -9.0191e-006 -5.27751e-005 -30.7104 6.73915 -7.34591 -179.027 -3.98907 -76.2759 -2.98287 7.31999 61.497 -106.666 -6.36111e-015 -0 -69.6645 -24.1739 -68.615 -177.393 8.2748 72.4416 -6.15336 -17.2318 -41.4267 -98.1316 -7.95139e-016 6.36111e-015 -56.8387 44.7347 58.9519 2.76697 0.120576 174.701 -13.798 0 1.59028e-015 14.601 10.5391 -2.78936 90 3.97569e-016 -6.36111e-015 -35.0939 0.631841 -179.486 -60.1084 9.54167e-015 1.59028e-015 -0.483483 -6.1275 1.75358 90 -1.59028e-015 -3.18055e-015 
320.748 90.3395 46.7619 -101.897 24.3851 -177.896 1.29842 -2.35232 2.50174 2.7018 -4.64455 5.06263 2.7018 -4.64455 5.06262 -8.30748e-012 -9.0191e-006 -5.27751e-005 -28.8801 8.99472 -8.70347 -178.753 -5.11564 -76.2857 -13.2123 12.9229 60.6443 -110.385 4.77083e-015 6.36111e-015 -65.309 -24.9234 -59.6357 -177.284 8.58071 72.3626 -5.35027 -19.6876 -41.3737 -100.474 -1.59028e-015 -3.18055e-015 -56.8643 45.4634 59.1711 6.91809 1.27546 176.973 -12.2343 6.36111e-015 1.59028e-015 5.52023 13.5569 -2.87369 90 3.57812e-015 -6.36111e-015 -32.755 -0.36125 -176.751 -38.7418 0 -2.38542e-015 -2.14938 -2.20524 -0.952793 90 7.95139e-016 3.18055e-015 
328.948 90.9746 49.7831 -102.007 23.9129 -176.052 1.20259 -2.48568 2.36932 2.51058 -4.9184 4.79719 2.51058 -4.9184 4.79718 -8.30748e-012 -9.0191e-006 -5.27751e-005 -27.0375 10.1956 -9.25514 -178.699 -5.41306 -76.4617 -20.3745 20.3179 61.2045 -114.218 3.18055e-015 -9.54166e-015 -63.4817 -22.0775 -51.5577 -177.059 9.28239 72.3321 -6.99882 -20.6646 -43.3007 -99.9276 -1.19271e-015 -0 -55.5757 46.6087 58.0522 5.6675 -1.20009 175.85 -20.177 3.18055e-015 -0 -2.92515 15.5039 -6.22325 90 -4.77083e-015 3.18055e-015 -28.6482 -0.682614 -178.903 -18.5832 6.36111e-015 4.96962e-016 -1.45314 -5.74128 6.48249 90 1.59028e-015 9.54166e-015 
336.845 90.3446 52.8999 -100.893 23.0165 -174.597 1.32803 -2.5039 2.07225 2.74977 -4.9569 4.20817 2.74977 -4.9569 4.20816 -8.31384e-012 -9.0191e-006 -5.27751e-005 -26.4471 10.105 -9.35091 -178.782 -5.14356 -76.6587 -24.0918 27.2079 63.3513 -115.733 1.59028e-015 3.18055e-015 -63.8599 -23.6743 -51.8857 -176.807 9.85826 71.9535 -10.351 -20.0596 -45.7127 -97.9506 1.59028e-015 -0 -55.8224 46.3013 58.2456 3.12346 -3.61985 175.189 -29.6822 -3.18055e-015 -1.59028e-015 -13.6616 14.9024 -15.0895 90 6.36111e-015 -0 -26.4397 -0.958304 179.237 -11.9954 -6.36111e-015 -7.95139e-016 3.64741 -10.3249 11.911 90 3.18055e-015 -0 
344.492 88.8185 56.3833 -98.7632 22.476 -175.713 1.6906 -2.0932 2.17627 3.46293 -4.11923 4.41788 3.46293 -4.11923 4.41787 -8.31066e-012 -9.0191e-006 -5.27751e-005 -26.4735 9.02343 -10.0938 -178.981 -4.2689 -76.5543 -24.6224 31.1036 66.2349 -112.563 -1.59028e-015 -0 -63.8929 -27.128 -56.7391 -176.683 9.94375 71.4452 -13.8145 -18.4966 -47.4618 -96.3098 -1.59028e-015 6.36111e-015 -57.9458 45.8665 60.7219 -0.416303 -1.81494 177.359 -45.3152 4.77083e-015 6.36111e-015 -10.9737 14.4204 -16.1716 90 7.95139e-016 6.36111e-015 -25.6593 0.581479 -179.544 -16.8858 6.36111e-015 6.95746e-016 -0.571816 -9.72666 9.85673 90 0 3.18055e-015 
351.831 86.5515 59.8698 -96.8637 21.6013 -177.233 1.90773 -1.49372 2.34596 3.87692 -2.90675 4.74282 3.87692 -2.90675 4.74281 -8.31225e-012 -9.0191e-006 -5.27751e-005 -26.2329 7.66815 -11.211 -179.156 -3.4545 -76.2631 -21.9286 32.4276 67.6317 -105.454 -1.59028e-015 -0 -62.8207 -28.8868 -58.66 -176.874 8.95184 70.6599 -16.9244 -16.5834 -48.0052 -96.0231 0 -1.59028e-015 -60.4744 44.1691 63.7066 -5.82965 1.91352 -178.046 -60.3485 0 3.18055e-015 -10.0132 13.371 -14.7675 90 3.18055e-015 -6.36111e-015 -26.7659 1.08027 -177.654 -33.8444 3.18056e-015 -0 13.2073 -7.58892 4.48637 90 7.95139e-016 1.59028e-015 
359.013 85.3841 62.9456 -95.7394 20.0137 -177.887 2.15371 -1.07399 2.52937 4.35378 -2.05064 5.0987 4.35378 -2.05064 5.09869 -8.30828e-012 -9.0191e-006 -5.27751e-005 -23.977 7.08622 -13.2088 -178.788 -4.40062 -74.5888 -18.8955 31.3187 66.2098 -94.9919 -3.18055e-015 -6.36111e-015 -63.6805 -24.6805 -57.1978 -177.261 7.3858 69.5864 -21.1383 -12.2738 -47.7413 -94.4823 -1.59028e-015 -0 -60.9678 42.0257 63.2969 -12.7904 3.2207 -174.709 -69.8764 -1.59028e-015 -3.18055e-015 -7.16028 10.897 -11.8901 90 -7.95139e-016 -1.59028e-015 -22.7234 -1.63698 -178.254 -39.8923 0 3.18056e-015 22.2146 -8.49114 5.40475 90 -1.59028e-015 -1.59028e-015 
366.312 85.6305 65.9364 -96.1763 17.0686 -177.307 1.86271 -0.689478 2.42432 3.75329 -1.29871 4.87039 3.75329 -1.29871 4.87038 -8.3043e-012 -9.0191e-006 -5.27751e-005 -20.3105 3.78403 -13.6735 -178.512 -4.73511 -72.5353 -14.8448 33.5374 61.2316 -91.293 9.54166e-015 9.54166e-015 -64.6076 -22.5264 -55.6926 -177.639 6.5384 70.0974 -22.7185 -6.58741 -51.4457 -92.3194 7.95139e-016 -1.19271e-015 -61.1948 40.7044 62.5189 -20.4272 2.17976 -173.823 -71.696 -3.18055e-015 -3.18055e-015 -4.00419 10.4892 -11.4784 90 -1.19271e-015 -0 -14.8401 -4.61472 -179.264 -35.5723 -3.18056e-015 -1.59028e-015 26.3628 -9.01344 5.4531 90 -1.59028e-015 1.59028e-015 
373.76 86.8515 69.0295 -95.9425 16.0772 -176.1 1.65323 0.24739 1.91053 3.29735 0.550127 3.81335 3.29735 0.550127 3.81334 -8.3051e-012 -9.0191e-006 -5.27751e-005 -16.4435 -2.63042 -11.4582 -178.288 -5.47151 -72.5924 -11.3748 36.6255 55.7779 -94.7735 0 -3.18055e-015 -63.5648 -24.5824 -55.3785 -178.073 5.55164 70.8266 -20.6079 -2.75429 -55.7607 -93.23 2.98177e-016 7.45443e-017 -62.8916 39.0534 63.7434 -24.7983 3.24392 -174.123 -66.0437 3.97569e-016 -1.59028e-015 -1.12387 11.9123 -13.2294 90 2.98177e-016 -0 -4.39049 -3.98456 -179.407 -26.1856 -3.18056e-015 -1.59028e-015 24.2346 -8.46749 2.93534 90 -1.59028e-015 1.59028e-015 
